<svg id="Capa_1" enable-background="new 0 0 512 512" height="512" viewBox="0 0 512 512" width="512" xmlns="http://www.w3.org/2000/svg"><g><path d="m256 241c24.813 0 45-20.187 45-45s-20.187-45-45-45-45 20.187-45 45 20.187 45 45 45zm0-60c8.271 0 15 6.729 15 15s-6.729 15-15 15-15-6.729-15-15 6.729-15 15-15z"/><path d="m331 316c0 24.813 20.187 45 45 45s45-20.187 45-45-20.187-45-45-45-45 20.187-45 45zm60 0c0 8.271-6.729 15-15 15s-15-6.729-15-15 6.729-15 15-15 15 6.729 15 15z"/><path d="m216.147 241h199.705v30h-199.705z" transform="matrix(.707 -.707 .707 .707 -88.465 298.427)"/><path d="m497 241h15v-150c-18.982 0-495.353 0-512 0v150h15c8.271 0 15 6.729 15 15s-6.729 15-15 15h-15v150h512v-150h-15c-8.271 0-15-6.729-15-15s6.729-15 15-15zm-15-27.43c-17.461 6.191-30 22.873-30 42.43s12.539 36.239 30 42.43v92.57h-331v-30h-30v30h-91v-92.57c17.461-6.191 30-22.873 30-42.43s-12.539-36.239-30-42.43v-92.57h91v30h30v-30h331z"/><path d="m121 271h30v60h-30z"/><path d="m121 181h30v60h-30z"/></g></svg>