<?xml version="1.0"?>
<svg xmlns="http://www.w3.org/2000/svg" viewBox="0 0 64 64" width="512" height="512"><g id="Delivery"><path d="M33,44H25a1,1,0,0,0,0,2h8a1,1,0,0,0,0-2Z"/><path d="M33,48H25a1,1,0,0,0,0,2h8a1,1,0,0,0,0-2Z"/><path d="M33,40H25a1,1,0,0,0,0,2h8a1,1,0,0,0,0-2Z"/><path d="M37,42h2a1,1,0,0,0,0-2H37a1,1,0,0,0,0,2Z"/><path d="M37,46h2a1,1,0,0,0,0-2H37a1,1,0,0,0,0,2Z"/><path d="M39,48H37a1,1,0,0,0,0,2h2a1,1,0,0,0,0-2Z"/><path d="M60.977,46.023A3.307,3.307,0,0,0,58,45.051V17c0-.014-.007-.025-.008-.039a1,1,0,0,0-.061-.3c-.009-.022-.014-.044-.023-.066s-.007-.025-.013-.037l-7-14A1,1,0,0,0,50,2H14a1,1,0,0,0-.895.553l-7,14c-.006.012-.007.025-.013.037s-.014.044-.023.066a1,1,0,0,0-.061.3c0,.014-.008.025-.008.039V45.049A3.456,3.456,0,0,0,5.5,45,3.5,3.5,0,0,0,2,48.5v6a3.468,3.468,0,0,0,4,3.459V59a2.987,2.987,0,0,0,5,2.22,2.954,2.954,0,0,0,4,0,2.954,2.954,0,0,0,4,0A2.987,2.987,0,0,0,24,59V58H40v1a2.987,2.987,0,0,0,5,2.22,2.954,2.954,0,0,0,4,0,2.954,2.954,0,0,0,4,0A2.987,2.987,0,0,0,58,59V57.959A3.468,3.468,0,0,0,62,54.5v-6A3.479,3.479,0,0,0,60.977,46.023ZM55.382,16H37.867L36.153,4H49.382ZM28,18h8V32H28ZM34.133,4l1.714,12H28.153L29.867,4ZM14.618,4H27.847L26.133,16H8.618ZM5.5,56A1.5,1.5,0,0,1,4,54.5v-6a1.5,1.5,0,1,1,3,0v2.288A2.954,2.954,0,0,0,6,53v2.91A1.514,1.514,0,0,1,5.5,56ZM9,60a1,1,0,0,1-1-1V53a1,1,0,0,1,1-1,.974.974,0,0,1,.712.306A.957.957,0,0,1,10,53v6A1,1,0,0,1,9,60Zm4,0a1,1,0,0,1-1-1V51a1,1,0,0,1,1-1,.974.974,0,0,1,.712.306A.957.957,0,0,1,14,51v8A1,1,0,0,1,13,60Zm4,0a1,1,0,0,1-1-1V51a1,1,0,0,1,2,0v8A1,1,0,0,1,17,60Zm5-1a1,1,0,0,1-2,0V53a1,1,0,0,1,2,0Zm2-3V53a2.99,2.99,0,0,0-4.116-2.78A2.973,2.973,0,0,0,15,48.783,2.936,2.936,0,0,0,13,48a3,3,0,0,0-2.889,2.236A3.111,3.111,0,0,0,9,50.019V48.5a3.478,3.478,0,0,0-1.008-2.459c0-.015.008-.027.008-.041V18H26V33a1,1,0,0,0,1,1H37a1,1,0,0,0,1-1V18H56V46.058A3.485,3.485,0,0,0,55,48.5v1.52a3.157,3.157,0,0,0-1.111.214A3,3,0,0,0,51,48a2.929,2.929,0,0,0-2,.782,2.973,2.973,0,0,0-4.886,1.438A2.99,2.99,0,0,0,40,53v3Zm19,4a1,1,0,0,1-1-1V53a1,1,0,0,1,2,0v6A1,1,0,0,1,43,60Zm4,0a1,1,0,0,1-1-1V51a1,1,0,0,1,2,0v8A1,1,0,0,1,47,60Zm4,0a1,1,0,0,1-1-1V51a.974.974,0,0,1,.306-.712A.957.957,0,0,1,51,50a1,1,0,0,1,1,1v8A1,1,0,0,1,51,60Zm5-1a1,1,0,0,1-2,0V53a.974.974,0,0,1,.306-.712,1,1,0,0,1,1.189-.155h0A1,1,0,0,1,56,53v6Zm4-4.5a1.5,1.5,0,0,1-2,1.415V53a2.967,2.967,0,0,0-1-2.235V48.5A1.5,1.5,0,0,1,58.5,47a1.487,1.487,0,0,1,1.062.437A1.514,1.514,0,0,1,60,48.5Z"/></g></svg>
