<svg id="Layer_1" data-name="Layer 1" xmlns="http://www.w3.org/2000/svg" viewBox="0 0 512 512"><defs><style>.cls-1,.cls-2{fill:none;stroke:#231f20;}.cls-1{stroke-miterlimit:10;}.cls-2{stroke-linecap:round;stroke-linejoin:round;stroke-width:8px;}.cls-3{fill:#231f20;}</style></defs><path class="cls-1" d="M237.84,448.94A50.14,50.14,0,0,1,187.7,398.8V113.2a50.14,50.14,0,0,1,50.14-50.14"/><path class="cls-2" d="M310.42,448.94H237.84A50.14,50.14,0,0,1,187.7,398.8V113.2a50.14,50.14,0,0,1,50.14-50.14h72.58"/><path class="cls-3" d="M306.64,428.82l15.93,15.93a5.93,5.93,0,0,1,0,8.38l-15.93,15.93a5.92,5.92,0,0,1-10.11-4.19V433A5.92,5.92,0,0,1,306.64,428.82Z"/></svg>