<?xml version="1.0" encoding="iso-8859-1"?>
<!-- Generator: Adobe Illustrator 19.0.0, SVG Export Plug-In . SVG Version: 6.00 Build 0)  -->
<svg xmlns="http://www.w3.org/2000/svg" xmlns:xlink="http://www.w3.org/1999/xlink" version="1.1" id="Layer_1" x="0px" y="0px" viewBox="0 0 492.027 492.027" style="enable-background:new 0 0 492.027 492.027;" xml:space="preserve" width="512" height="512">
<g>
	<path d="M427.473,362.28c-66.327,103.272-202.391,128.533-300.224,63.552l20.761-19.856c2.621-2.507,1.546-6.911-1.936-7.928   L59.6,372.802c-3.482-1.016-6.758,2.117-5.898,5.641l21.365,87.517c0.86,3.524,5.213,4.794,7.834,2.287l21.837-20.886   c112.683,79.425,271.749,50.728,348.39-68.605C464.028,361.787,438.357,345.331,427.473,362.28z"/>
	<path d="M64.591,129.747C130.918,26.475,266.981,1.214,364.815,66.195L344.054,86.05c-2.621,2.507-1.546,6.912,1.936,7.928   l86.473,25.246c3.482,1.016,6.758-2.117,5.898-5.641l-21.365-87.517c-0.86-3.524-5.213-4.794-7.834-2.287l-21.837,20.886   C274.642-34.759,115.576-6.062,38.935,113.271C27.919,130.421,53.765,146.606,64.591,129.747z"/>
	<path d="M384.939,285.448c7.816-0.752,13.792-7.318,13.792-15.174v-48.522c0-7.857-5.976-14.422-13.792-15.174l-17.115-1.637   c-1.85-5.478-4.065-10.824-6.627-16.008l10.936-13.263c5-6.058,4.584-14.92-0.976-20.48l-34.302-34.302   c-5.559-5.56-14.422-5.977-20.48-0.976l-13.264,10.936c-5.183-2.561-10.529-4.777-16.008-6.627l-1.636-17.115   c-0.752-7.816-7.318-13.792-15.174-13.792h-48.522c-7.856,0-14.422,5.977-15.174,13.792l-1.636,17.115   c-5.478,1.85-10.824,4.065-16.008,6.627l-13.264-10.936c-6.057-5.001-14.92-4.584-20.48,0.976l-34.302,34.302   c-5.56,5.559-5.976,14.422-0.976,20.48l10.936,13.263c-2.561,5.184-4.777,10.53-6.627,16.008l-17.115,1.637   c-7.816,0.752-13.792,7.318-13.792,15.174v48.522c0,7.857,5.976,14.422,13.792,15.174l17.115,1.637   c1.85,5.478,4.065,10.824,6.627,16.008l-10.936,13.263c-5,6.057-4.584,14.92,0.976,20.48l34.302,34.302   c5.559,5.56,14.422,5.977,20.48,0.976l13.264-10.936c5.183,2.571,10.529,4.777,16.008,6.627l1.636,17.115   c0.752,7.816,7.318,13.792,15.174,13.792h48.522c7.856,0,14.422-5.977,15.174-13.792l1.636-17.115   c5.478-1.85,10.824-4.056,16.008-6.627l13.264,10.936c6.058,5.001,14.92,4.584,20.48-0.976l34.302-34.302   c5.56-5.559,5.976-14.422,0.976-20.48l-10.936-13.263c2.561-5.184,4.777-10.53,6.627-16.008L384.939,285.448z M314.535,331.073   c-5.011-4.136-12.085-4.645-17.624-1.26c-8.568,5.214-17.858,9.056-27.605,11.434c-6.312,1.534-10.946,6.891-11.566,13.355   l-1.311,13.62h-20.795l-1.311-13.62c-0.62-6.464-5.255-11.82-11.566-13.355c-9.747-2.379-19.037-6.22-27.605-11.434   c-5.539-3.385-12.623-2.876-17.624,1.26l-10.56,8.71l-14.707-14.707l8.71-10.56c4.136-5.011,4.645-12.085,1.26-17.624   c-5.214-8.568-9.056-17.857-11.434-27.605c-1.535-6.312-6.891-10.946-13.355-11.566l-13.619-1.311v-20.795l13.619-1.311   c6.464-0.62,11.82-5.255,13.355-11.566c2.378-9.747,6.22-19.037,11.434-27.605c3.384-5.539,2.876-12.613-1.26-17.624l-8.71-10.56   l14.707-14.707l10.56,8.71c5.011,4.136,12.084,4.645,17.624,1.26c8.568-5.214,17.858-9.055,27.605-11.434   c6.312-1.534,10.946-6.891,11.566-13.355l1.311-13.62h20.795l1.311,13.62c0.62,6.464,5.255,11.82,11.566,13.355   c9.747,2.379,19.037,6.22,27.605,11.434c5.539,3.375,12.613,2.876,17.624-1.26l10.56-8.71l14.707,14.707l-8.71,10.56   c-4.136,5.01-4.645,12.085-1.26,17.624c5.214,8.568,9.056,17.857,11.434,27.605c1.535,6.312,6.891,10.946,13.355,11.566   l13.619,1.311v20.795l-13.619,1.311c-6.464,0.62-11.82,5.255-13.355,11.566c-2.378,9.747-6.22,19.037-11.434,27.605   c-3.384,5.539-2.876,12.613,1.26,17.624l8.71,10.56l-14.707,14.707L314.535,331.073z"/>
	<path d="M246.032,175.58c-38.835,0-70.434,31.599-70.434,70.434s31.599,70.434,70.434,70.434s70.434-31.599,70.434-70.434   S284.867,175.58,246.032,175.58z M246.032,285.957c-22.025,0-39.943-17.918-39.943-39.943s17.919-39.943,39.943-39.943   s39.943,17.918,39.943,39.943S268.056,285.957,246.032,285.957z"/>
</g>















</svg>
