<svg id="Capa_1" enable-background="new 0 0 512 512" height="512" viewBox="0 0 512 512" width="512" xmlns="http://www.w3.org/2000/svg"><g><path d="m372.672 181.754-42.426-42.427c-5.853-5.854-15.356-5.858-21.213 0l-53.033 53.033-53.033-53.033c-5.853-5.854-15.356-5.858-21.213 0l-42.426 42.427c-5.858 5.857-5.858 15.355 0 21.213l53.032 53.033-53.033 53.033c-5.858 5.857-5.858 15.355 0 21.213l42.426 42.427c5.853 5.854 15.356 5.858 21.213 0l53.034-53.033 53.033 53.033c5.853 5.854 15.356 5.858 21.213 0l42.426-42.427c5.858-5.857 5.858-15.355 0-21.213l-53.032-53.033 53.033-53.033c5.857-5.858 5.857-15.356-.001-21.213zm-84.852 63.64c-5.858 5.857-5.858 15.355 0 21.213l53.033 53.033-21.213 21.214-53.033-53.033c-5.858-5.858-15.355-5.858-21.213 0l-53.033 53.033-21.213-21.214 53.033-53.033c5.858-5.857 5.858-15.355 0-21.213l-53.033-53.033 21.213-21.214 53.033 53.033c5.857 5.857 15.355 5.857 21.213 0l53.033-53.033 21.213 21.214z"/><path d="m256 0c-140.959 0-256 115.049-256 256 0 140.959 115.049 256 256 256 140.959 0 256-115.049 256-256 0-140.959-115.049-256-256-256zm0 482c-124.617 0-226-101.383-226-226s101.383-226 226-226 226 101.383 226 226-101.383 226-226 226z"/></g></svg>