<svg id="Capa_1" enable-background="new 0 0 512 512" height="512" viewBox="0 0 512 512" width="512" xmlns="http://www.w3.org/2000/svg"><g><path d="m255.959 30c-13.697-18.204-35.475-30-59.959-30h-196v392h121.838c7.486 67.406 64.793 120 134.162 120s126.676-52.594 134.162-120h121.838v-362zm.041 452c-57.897 0-105-47.103-105-105s47.103-105 105-105 105 47.103 105 105-47.103 105-105 105zm226-120h-91.838c-7.486-67.406-64.793-120-134.162-120s-126.676 52.594-134.162 120h-91.838v-332h166c24.813 0 45 20.187 45 45v45h241zm0-272h-211v-15c0-5.136-.521-10.152-1.509-15h212.509z"/><path d="m232.135 395.562-21.213-21.213-21.213 21.213 42.426 42.426 84.853-84.853-21.213-21.213z"/></g></svg>